<svg width="27" height="51" viewBox="0 0 27 51" fill="none" xmlns="http://www.w3.org/2000/svg">
<g clip-path="url(#clip0_1504_7090)">
<path d="M26.6518 13.0956C26.5312 5.97851 20.7352 0.15557 13.6197 0.00312872C6.12465 -0.157252 0 5.86895 0 13.3275L0.265185 16.362C0.295355 16.7034 0.3684 17.04 0.484319 17.364L12.1223 49.8086C12.4859 50.8233 13.9214 50.8233 14.285 49.8086L25.2021 19.3759C26.1612 17.4958 26.6915 15.36 26.6518 13.0956ZM13.3275 24.2318C7.3156 24.2318 2.42318 19.341 2.42318 13.3275C2.42318 7.31396 7.31401 2.42314 13.3275 2.42314C19.341 2.42314 24.2318 7.31396 24.2318 13.3275C24.2318 19.341 19.341 24.2318 13.3275 24.2318Z" fill="#003566"/>
<rect x="3.01709" y="3.01709" width="20.6431" height="20.6431" rx="10.3216" fill="#FFC300"/>
</g>
<defs>
<clipPath id="clip0_1504_7090">
<rect width="26.6534" height="50.5693" fill="white"/>
</clipPath>
</defs>
</svg>
